<svg xmlns="http://www.w3.org/2000/svg" xmlns:xlink="http://www.w3.org/1999/xlink" viewBox="0 0 600 600.27"><defs><style>.a{fill:none;}.b{fill:#ccc;}.c{fill:#4b7334;}.d{fill:#1a1a1a;}.e{fill:#4b8834;}.f{clip-path:url(#a);}.g{font-size:84.73px;font-family:SegoePrint, Segoe Print;}.h{font-size:34.62px;font-family:MyriadPro-Regular, Myriad Pro;}.i{letter-spacing:0em;}</style><clipPath id="a" transform="translate(0 0.27)"><path class="a" d="M523.18,559.61s-54.8,5.85-68.32,1.36c-.42-.13-2.08-.7-2.79,0-2.3,2.31,9.7,13.75,7,17.79-2.11,3.13-12.5,1-19.52-2.74-3.89-2-3.56-2.93-8.06-5.3l-.32-.17a37.31,37.31,0,0,0-8.78-3.22,19.75,19.75,0,0,1-5.16-2.25c-6-3.59-6.05-6.54-9.76-6.84s-5.1,2.38-11.16,5.48c-3.4,1.74-6.45,2.53-12.55,4.09-1.81.47-3.45.85-5,1.15-9.88,2-16.71,1.28-42.39,3-3.67.23-10.47.7-11.16-1.37-.3-.9.67-2,1.39-2.74,8.12-8.57,12.17-12.85,19.53-15,3.39-1,6.87-1.42,7-2.73,0-.53-.49-.85-2.78-2.74-3.64-3-4-3.61-4.19-4.1-.82-2.14.79-4.55,1.39-5.47,4-6,11.5-5.83,22.31-10.94,6.68-3.14,10-4.72,12.55-8.2,4.1-5.63,3.26-12.49,1.39-26-1.52-11.13-2.69-19.57-7-27.34a111.28,111.28,0,0,1-7-15,39.2,39.2,0,0,1-1.39-4.11c-.84-3.08-.4-5.38-1.4-8.2a12.44,12.44,0,0,0-1.39-2.73c-3.23-4.49-21.33,2.07-27.89,4.09-23.19,7.18-58.88,6.4-80.88-4.09-3.28-1.58-10.18-5.2-16.74-2.74-3,1.14-4.88,3.16-11.14,13.67-6,10-10.13,17-15.35,28.71-1.23,2.77-2.68,6.4-5.57,13.69-4.39,11-6,15.73-5.58,21.87a24.7,24.7,0,0,0,1.39,6.84c1.93,5.17,5.39,8.42,8.37,10.93,6.6,5.59,11.6,8.28,18.13,12.31,0,0,14.69,8.06,18.13,13.68a9.84,9.84,0,0,1,1.08,2.47c.41,1.63,0,2.14.31,3,.55,1.45,2.23,1.26,5.69,2.88a13.25,13.25,0,0,1,5.46,4,9.08,9.08,0,0,1,1.4,2.74c-.37,0-14.65,1.35-26.49,1.36-.58,0-3.51-.23-8.92-.69l-1.28-.12c-5.22-.45-12.48-1.09-21.88-1.93-5.55-.48-14.48-1.28-26.49-1.36-2,0-3.05,0-4.19,0-2.15,0-5.58.13-9.87.56h0a93,93,0,0,0-22.19,4.91c-1.68.61-4.39,1.65-11.16,4.1-4.59,1.68-6.73,2.43-9.75,2.74-1.36.14-8.75.88-9.77-1.37-1.57-3.48,16.81-12.39,15.34-16.42-.83-2.29-7.47-1.11-22.31-1.36-18.3-.3-24-2.33-26.76-4.46-.4-.31-1.08-.53-1.13-1-.12-1.16,3.1-2.33,4.19-2.73,12.13-4.47,34.16-7.78,43.28-9,2.58-.35,4.13-.54,4.13-.54,2.33-.28,5.24-.69,8.51-1.28h0c13.27-2.36,32.15-7.64,38.89-19.24,3.82-6.56,2.22-10.36,4.06-21.55h0c.08-.48.17-1,.26-1.5.57-3.1,1.39-6.75,2.65-11.13,1.11-3.86,1.73-4.87,4.17-11.85.39-1.15,2.81-8.11,4.2-12.75,2.24-7.56,5.84-19.63,4.19-34.2-.68-5.83-1-8.74-2.8-12.3-5.39-10.72-16.67-13.31-25.1-17.78-14.91-7.91-21.15-21.91-29.28-39.66-3.66-8-10.31-25.2-8.37-65.64,2.53-52.67,4.32-90,33.47-116.22,11-10,32-22.14,51.59-24.62a157.17,157.17,0,0,1,16.74-1.37c15.08-.13,20.63,2.81,29.28,0,6.33-2.06,10.16-5.85,13.94-9.58,0,0,18.89-18.64,23.71-56.06a71.14,71.14,0,0,1,5.58-20.51c1.58-3.56,15.42-34.92,39-38.29,6-.86,12.41.13,15.35-4.11a5.65,5.65,0,0,0,.87-1.9c.78-3.11-1.27-6.18.52-10.39,3.4-8,17.42-12.55,25.09-8.22a11.87,11.87,0,0,1,4.19,4.11c8.34,12.94,14.65,22.77,18.41,30.48h0c4,8.28,5.11,14.12,2.51,18.73,0,0-.23.4-7,9.58,6.6,11.07,7,15,7,15,.22,2.42-.26,2.52,0,6.84.27,4.67.91,5.83,0,6.83-2.19,2.42-9.76,0-9.76,0s-3.61,11-5.58,19.15c-2.89,11.93-7,28.9,1.39,36.93a15,15,0,0,0,4.19,2.73s8.1,3.92,44.62,24.62c13.08,7.4,24.48,13.86,33.46,26,12.32,16.58,13.25,34.49,13.95,47.86C493,286.18,478.3,318,468.8,321.67c-1.2.47-7.31,2.41-8.36,6.83a6,6,0,0,0,0,2.75c.33,1.62.22,9.28,0,24.61-.45,29.73-16.74,46.5-16.74,46.5-16.56,14.07-28.4,24.75-30.68,27.35-.67.75-.38.67-2.79,4.09a6.21,6.21,0,0,0-1.41,3.92,1.83,1.83,0,0,0,0,.19c1.52,16.86-4.47,58.11,18.13,86.15l1.14,1.4c3.65,4.45,9.8,11.21,19.77,15a39.63,39.63,0,0,0,4.86,1.51c5.93,1.41,11.69,1.34,18.84,1.23,2.26,0,4.54-.14,6.94-.28,7.26-.41,15.49-1.14,26.53-1.08a21.27,21.27,0,0,1,11.16,2.73c1.49.88,5.57,3.32,7,8.2A12.84,12.84,0,0,1,523.18,559.61Z"/></clipPath></defs><title>happy-broiler-logo3</title><path class="b" d="M523.18,559.34s-54.8,5.85-68.32,1.37c-.42-.13-2.08-.71-2.79,0-2.3,2.3,9.7,13.74,7,17.78-2.11,3.13-12.5,1-19.52-2.73-3.89-2.06-3.56-2.93-8.06-5.31l-.32-.17a37.31,37.31,0,0,0-8.78-3.22,19.75,19.75,0,0,1-5.16-2.25c-6-3.59-6.05-6.54-9.76-6.83s-5.1,2.37-11.16,5.47c-3.4,1.74-6.45,2.53-12.55,4.09-1.81.47-3.45.85-5,1.16-9.88,2-16.71,1.27-42.39,2.95-3.67.24-10.47.71-11.16-1.37-.3-.9.67-2,1.39-2.74,8.12-8.56,12.17-12.85,19.53-15,3.39-1,6.87-1.42,7-2.73,0-.53-.49-.84-2.78-2.74-3.64-3-4-3.61-4.19-4.09-.82-2.14.79-4.56,1.39-5.48,4-6,11.5-5.83,22.31-10.94,6.68-3.14,10-4.72,12.55-8.2,4.1-5.63,3.26-12.49,1.39-26-1.52-11.14-2.69-19.57-7-27.35a111.28,111.28,0,0,1-7-15,39.2,39.2,0,0,1-1.39-4.11c-.84-3.08-.4-5.38-1.4-8.2a12.44,12.44,0,0,0-1.39-2.73c-3.23-4.48-21.33,2.07-27.89,4.1-23.19,7.17-58.88,6.4-80.88-4.1-3.28-1.58-10.18-5.2-16.74-2.74-3,1.14-4.88,3.16-11.14,13.67-6,10-10.13,17-15.35,28.72-1.23,2.76-2.68,6.4-5.57,13.68-4.39,11-6,15.73-5.58,21.88a24.49,24.49,0,0,0,1.39,6.83c1.93,5.17,5.39,8.42,8.37,10.94,6.6,5.59,11.6,8.27,18.13,12.31,0,0,14.69,8.06,18.13,13.67a9.84,9.84,0,0,1,1.08,2.47c.41,1.64,0,2.14.31,3,.55,1.45,2.23,1.26,5.69,2.88a13.34,13.34,0,0,1,5.46,4,9.08,9.08,0,0,1,1.4,2.74c-.37,0-14.65,1.35-26.49,1.36-.58,0-3.51-.23-8.92-.69l-1.28-.12c-5.22-.44-12.48-1.09-21.88-1.93-5.55-.48-14.48-1.28-26.49-1.36-2,0-3.05,0-4.19,0-2.15,0-5.58.13-9.87.56h0a93.5,93.5,0,0,0-22.19,4.91c-1.68.61-4.39,1.65-11.16,4.11-4.59,1.67-6.73,2.42-9.75,2.73-1.36.14-8.75.88-9.77-1.37-1.57-3.48,16.81-12.39,15.34-16.41-.83-2.3-7.47-1.12-22.31-1.37-18.3-.29-24-2.33-26.76-4.46-.4-.3-1.08-.53-1.13-1-.12-1.15,3.1-2.33,4.19-2.73,12.13-4.47,34.16-7.78,43.28-9,2.58-.35,4.13-.54,4.13-.54,2.33-.28,5.24-.69,8.51-1.28h0c13.27-2.35,32.15-7.64,38.89-19.24,3.82-6.56,2.22-10.36,4.06-21.55h0c.08-.48.17-1,.26-1.49.57-3.11,1.39-6.76,2.65-11.14,1.11-3.86,1.73-4.87,4.17-11.85.39-1.15,2.81-8.1,4.2-12.75,2.24-7.56,5.84-19.63,4.19-34.2-.68-5.82-1-8.74-2.8-12.3C185.91,405,174.63,402.45,166.2,398c-14.91-7.9-21.15-21.91-29.28-39.65-3.66-8-10.31-25.21-8.37-65.64,2.53-52.68,4.32-90,33.47-116.23,11-10,32-22.14,51.59-24.62a157.17,157.17,0,0,1,16.74-1.37c15.08-.13,20.63,2.82,29.28,0,6.33-2.06,10.16-5.84,13.94-9.57,0,0,18.89-18.64,23.71-56.07a71.14,71.14,0,0,1,5.58-20.51c1.58-3.56,15.42-34.92,39-38.29,6-.86,12.41.13,15.35-4.11a5.65,5.65,0,0,0,.87-1.9c.78-3.11-1.27-6.18.52-10.39,3.4-8,17.42-12.55,25.09-8.22a12,12,0,0,1,4.19,4.11c8.34,12.94,14.65,22.77,18.41,30.48h0c4,8.28,5.11,14.12,2.51,18.73,0,0-.23.4-7,9.58,6.6,11.08,7,15,7,15,.22,2.43-.26,2.52,0,6.84.27,4.67.91,5.84,0,6.84-2.19,2.41-9.76,0-9.76,0s-3.61,11-5.58,19.14c-2.89,11.93-7,28.9,1.39,36.93a15,15,0,0,0,4.19,2.73s8.1,3.92,44.62,24.62c13.08,7.4,24.48,13.86,33.46,26,12.32,16.58,13.25,34.49,13.95,47.86,1.86,35.61-12.81,67.43-22.31,71.1-1.2.47-7.31,2.41-8.36,6.84a5.91,5.91,0,0,0,0,2.74c.33,1.62.22,9.28,0,24.62-.45,29.72-16.74,46.49-16.74,46.49-16.56,14.07-28.4,24.75-30.68,27.35-.67.75-.38.67-2.79,4.09a6.24,6.24,0,0,0-1.41,3.92,1.31,1.31,0,0,0,0,.19c1.52,16.86-4.47,58.11,18.13,86.15.35.44.72.9,1.14,1.4,3.65,4.45,9.8,11.22,19.77,15a41.34,41.34,0,0,0,4.86,1.5c5.93,1.41,11.69,1.34,18.84,1.24,2.26,0,4.54-.14,6.94-.29,7.26-.41,15.49-1.14,26.53-1.08a21.27,21.27,0,0,1,11.16,2.73c1.49.88,5.57,3.32,7,8.2A12.84,12.84,0,0,1,523.18,559.34Z" transform="translate(0 0.27)"/><path class="c" d="M247,595.34l-1.44-.26v0a302.24,302.24,0,0,1-83.39-28h0c-1.67-.86-3.32-1.72-5-2.6a300.77,300.77,0,0,1-35.28-22C48.86,489.49,1.21,405,0,309.52v-.26c0-1.11,0-2.24,0-3.37a272.62,272.62,0,0,1,11.29-77.36v0C30.43,163.84,72.22,108.08,123.76,69.66A298.34,298.34,0,0,1,182.82,35.2c6.29-2.73,12.49-5.17,18.55-7.3h0c.66-.24,1.31-.46,2-.68A304.85,304.85,0,0,0,172,60c-4.66,5.65-23.79,29.47-41.49,65.89-6.51,13.39-14.14,29.29-19.84,51.75s-6.54,40-7.22,55.89c-1.51,35.9,2.68,63.24,5.42,80.59A518,518,0,0,0,149.7,446.47a517.09,517.09,0,0,0,27.66,51.18c.13.23.25.43.37.61,1.67,2.75,2.21,3.29,30.89,46.45,6.58,9.91,11.71,17.64,17.23,25.15,3.71,5,7.6,10,12.23,15.44C241.31,589.09,244.32,592.45,247,595.34Z" transform="translate(0 0.27)"/><path class="c" d="M600,305.89c0,1.1,0,2.2,0,3.29C598.91,405.11,550.9,490,477.36,542.92q-12,8.67-24.9,16.15-9.18,5.32-18.77,10c-1.13.56-2.25,1.11-3.39,1.64l-.41.2q-10.75,5.08-21.95,9.32a304.1,304.1,0,0,1-29.39,9.46l-.25.07q-5.48,1.44-11,2.71c-1.86.41-3.71.81-5.58,1.2-6,1.22-12.05,2.29-18.17,3.16q-8.46,1.21-17.07,2A311.39,311.39,0,0,0,362,579.56c2.46-1.55,8-5.09,15.52-10.6a370.21,370.21,0,0,0,45.1-39.11c1.4-1.43,2.84-2.88,4.29-4.39a242.16,242.16,0,0,0,31.23-38.6c12.69-19.59,19.13-35.93,24.89-50.79,13-33.59,17.86-60.84,20.86-78.13a501.4,501.4,0,0,0,6.8-79.62,503.42,503.42,0,0,0-2.89-58.6,511.93,511.93,0,0,0-9.72-57.1c-.88-4-.29-1.11-14.48-54.31C480,94.68,477.32,84.61,473.71,74,544.76,124.09,600,203,600,305.89Z" transform="translate(0 0.27)"/><path class="d" d="M510.73,278.31a502.41,502.41,0,0,1-6.8,79.62c-3,17.31-7.85,44.54-20.86,78.14-5.76,14.86-12.2,31.2-24.88,50.8s-25,32.28-35.53,43c-28.55,29.09-54.38,45.79-60.62,49.7a310.06,310.06,0,0,1-35.56,19.26c-2.73.25-5.48.45-8.24.62q-9.35.57-18.84.57a309,309,0,0,1-47.94-3.72c-1.89-.3-3.79-.61-5.68-.94l-.24-.27c-2.61-2.82-5.53-6.1-8.67-9.78-11.5-13.54-18.45-24-29.46-40.58-30.63-46.1-29.15-43.58-31.26-47.06a517.48,517.48,0,0,1-27.65-51.18,518,518,0,0,1-40.88-132.35c-2.75-17.35-6.92-44.69-5.42-80.59.67-15.88,1.51-33.37,7.22-55.88s13.32-38.37,19.84-51.77C147,89.47,166.09,65.65,170.74,60a307.17,307.17,0,0,1,30.63-32.1l.77-.7L205.76,26c41.65-13.78,76.2-14.56,89.48-14.32,1.06,0,2,0,2.77.07l1.39,0A294.15,294.15,0,0,1,370.53,24a355.64,355.64,0,0,1,84,37.43q9.75,6,19.19,12.6c3.61,10.6,6.29,20.67,9.92,34.3,14.2,53.2,13.61,50.35,14.48,54.31a509.51,509.51,0,0,1,9.73,57.1A500.87,500.87,0,0,1,510.73,278.31Z" transform="translate(0 0.27)"/><path class="e" d="M157.15,564.41a300.77,300.77,0,0,1-35.28-22C48.86,489.49,1.21,405,0,309.52v-.26a324,324,0,0,1,11.27-80.73v0C30.43,163.84,72.22,108.08,123.76,69.66q4.87-2.72,9.62-4.94A254,254,0,0,0,112.79,94c-10.42,17.19-18.37,34.2-27.22,58.8-12.8,35.66-23.69,66-28.57,109-4.56,40.19-1.67,72,0,89.43a361.86,361.86,0,0,0,7.2,48.25,330.55,330.55,0,0,0,45.6,108.26,323.31,323.31,0,0,0,24.71,32.79h0C141.11,548.24,148.63,556.28,157.15,564.41Z" transform="translate(0 0.27)"/><path class="e" d="M600,309.18C598.91,405.11,550.9,490,477.36,542.92q-12,8.67-24.9,16.15-9.18,5.32-18.77,10c-1.13.56-2.25,1.11-3.39,1.64l-.41.2q-10.75,5.08-21.95,9.32c-3.44,1.21-7.36,2.4-7.74,1.67-.68-1.32,10.45-7.67,21-14.58,1.9-1.24,3.78-2.5,5.57-3.74A153.66,153.66,0,0,0,451.58,542a294.43,294.43,0,0,0,19.32-23.72c16.52-21.82,24.86-40.16,34.9-62.26a447.81,447.81,0,0,0,21.6-57.66A394.9,394.9,0,0,0,543,321.84c1.67-16.64,4.12-42.58,0-74.13a352,352,0,0,0-10.8-50.6c-2.05-6.92-2.15-6.39-4.8-15.3-3.67-12.33-6-21.72-12.12-48.14-2.21-9.5-4.62-20-7.21-31.29C558.91,147.29,598.64,217.61,600,309.18Z" transform="translate(0 0.27)"/><text class="g" transform="translate(173.23 240.18) scale(1.02 1)">happy <tspan x="-6.97" y="101.67">broiler</tspan></text><text class="h" transform="translate(195.29 379.28) scale(1.01 1)">and his f<tspan class="i" x="121.25" y="0">r</tspan><tspan x="132.71" y="0">iends</tspan></text></svg>